<svg width="120" height="114" viewBox="0 0 120 114" fill="none" xmlns="http://www.w3.org/2000/svg">
<defs>
<linearGradient id="paint0_linear_9511_81425" x1="24.9172" y1="10.4719" x2="95.3333" y2="103.217" gradientUnits="userSpaceOnUse">
<stop stop-color="#197DD9"/>
<stop offset="0.5" stop-color="#C953A8"/>
<stop offset="1" stop-color="#EC8A61"/>
</linearGradient>
</defs>
<path d="M87.5447 35.8925C89.1873 38.163 90.5264 40.6401 91.5279 43.2605C93.7355 49.1142 94.3883 55.4455 93.4223 61.6331C92.6669 67.8544 90.3112 73.7731 86.5871 78.8065C83.0929 83.5184 78.3617 87.1615 72.924 89.3273C67.2993 91.5428 61.1931 92.2272 55.2242 91.3112C50.4338 90.6952 45.8235 89.0906 41.6833 86.5981L26.5606 103.323C34.3785 108.191 43.1528 111.308 52.2847 112.459C62.6791 114.072 73.3144 113.03 83.2079 109.426C92.5757 106.014 100.824 100.069 107.041 92.2466C113.258 84.4246 117.201 75.0312 118.434 65.1056C119.962 55.1265 118.687 44.921 114.752 35.6369C112.046 29.2502 108.13 23.4534 103.221 18.5682L87.5447 35.8925ZM36.726 4.58895C27.4418 7.94621 19.254 13.8034 13.0597 21.5187C6.79481 29.4067 2.81801 38.8751 1.56745 48.8806C0.0373164 58.8559 1.28001 69.058 5.1585 78.3622C7.48176 83.8789 10.7205 88.9588 14.7371 93.3859L30.8072 75.6058C29.8969 74.0481 29.1118 72.4198 28.4593 70.7365C26.2636 64.8766 25.6201 58.5432 26.5916 52.3548C27.3468 46.1408 29.6926 40.2272 33.4002 35.1905C36.9032 30.4826 41.6373 26.8412 47.0757 24.6714C52.6962 22.4542 58.798 21.7649 64.7648 22.6732C68.578 23.1738 72.2853 24.2875 75.7445 25.9715L90.8884 9.18592C83.7191 5.17273 75.8486 2.57678 67.7025 1.53847C57.3062 -0.0608451 46.673 0.986109 36.7776 4.58335" fill="url(#paint0_linear_9511_81425)"/>
</svg>
