<svg width="22" height="22" viewBox="0 0 22 22" fill="none" xmlns="http://www.w3.org/2000/svg">
<path fill-rule="evenodd" clip-rule="evenodd" d="M0.225708 10.8172C0.225708 5.11918 4.91988 0.5 10.7104 0.5C16.501 0.5 21.1952 5.11918 21.1952 10.8172C21.1952 16.5153 16.501 21.1345 10.7104 21.1345C4.91988 21.1345 0.225708 16.5153 0.225708 10.8172ZM16.1992 8.35671C16.373 8.18566 16.373 7.90834 16.1992 7.73729C16.0253 7.56624 15.7435 7.56624 15.5697 7.73729L9.60729 13.6044L7.06878 11.1065C6.89495 10.9354 6.61313 10.9354 6.4393 11.1065C6.26548 11.2775 6.26548 11.5549 6.4393 11.7259L9.29255 14.5336C9.46637 14.7046 9.7482 14.7046 9.92202 14.5336L16.1992 8.35671Z" fill="#56CA8B"/>
</svg>
