<svg width="69" height="69" viewBox="0 0 69 69" fill="none" xmlns="http://www.w3.org/2000/svg">
<defs>
<linearGradient id="paint0_linear_9974_24067" x1="12.1514" y1="12.4058" x2="56.7722" y2="57.033" gradientUnits="userSpaceOnUse">
<stop stop-color="#197DD9"/>
<stop offset="0.5" stop-color="#C953A8"/>
<stop offset="1" stop-color="#EC8A61"/>
</linearGradient>
</defs>
<path d="M33.1756 26.6902C32.8196 27.2351 32.3302 27.6799 31.7538 27.9822C31.2172 28.2696 30.6113 28.4021 30.0038 28.365C29.387 28.3283 28.7927 28.1199 28.288 27.7634C27.7733 27.424 27.3599 26.9516 27.0918 26.3963C26.9345 26.0579 26.8373 25.6948 26.8047 25.3231H28.2812C28.3163 25.4279 28.3574 25.5306 28.4043 25.6307C28.578 25.9752 28.8398 26.2676 29.163 26.4783C29.48 26.697 29.8465 26.8333 30.2294 26.8748C30.5865 26.9028 30.9447 26.8368 31.2684 26.6834C31.6027 26.5151 31.8876 26.2631 32.0956 25.9519C32.2317 25.7589 32.3334 25.5439 32.3963 25.3162H33.7635C33.6469 25.8068 33.4381 26.2708 33.1483 26.6834" fill="black"/>
<path d="M35.2266 25.3233H36.5937C36.6587 25.5514 36.7628 25.7665 36.9013 25.959C37.1105 26.2741 37.4011 26.5268 37.7421 26.6904C38.0679 26.8451 38.4286 26.9111 38.788 26.8818C39.169 26.8415 39.5336 26.7051 39.8475 26.4853C40.1708 26.2747 40.4326 25.9822 40.6063 25.6377C40.6666 25.539 40.7148 25.4335 40.7498 25.3233H42.2264C42.1922 25.6903 42.095 26.0487 41.9393 26.3828C41.673 26.9372 41.2621 27.4096 40.7498 27.75C40.2427 28.1067 39.6462 28.315 39.0272 28.3515C38.4198 28.388 37.8141 28.2555 37.2773 27.9687C36.695 27.6731 36.1984 27.2329 35.8349 26.6904C35.5456 26.2784 35.339 25.8141 35.2266 25.3233Z" fill="black"/>
<path d="M38.0154 34.707H36.6483C36.5605 34.4156 36.4156 34.1447 36.222 33.9099C36.0283 33.6752 35.7898 33.4814 35.5204 33.3399C35.196 33.181 34.8341 33.1148 34.4745 33.1485C34.093 33.187 33.728 33.3236 33.415 33.545C33.0917 33.7556 32.8299 34.0481 32.6562 34.3926C32.6013 34.489 32.5599 34.5925 32.5332 34.7002H31.0156C31.0499 34.3354 31.1471 33.9792 31.3027 33.6475C31.5664 33.0893 31.9807 32.6158 32.499 32.2803C32.998 31.923 33.5871 31.7125 34.1996 31.6726C34.8121 31.6328 35.4235 31.7651 35.9647 32.0548C36.4763 32.3297 36.9236 32.7101 37.2772 33.1709C37.6307 33.6316 37.8823 34.1622 38.0154 34.7275" fill="black"/>
<path d="M47.737 21.3645C48.7903 22.4585 49.6957 23.6857 50.4303 25.0148C52.0553 27.986 52.8798 31.3287 52.8228 34.7147C52.8816 38.1031 52.0571 41.4485 50.4303 44.4215C48.9032 47.2051 46.6308 49.5082 43.868 51.0727C41.0083 52.6776 37.7752 53.4982 34.4962 53.4515C31.8736 53.4778 29.2739 52.9611 26.8607 51.934L19.9771 62.0167C24.546 64.0431 29.4984 65.0596 34.4962 64.9971C40.2076 65.0886 45.85 63.7391 50.902 61.0733C55.6856 58.5493 59.6777 54.7512 62.4368 50.0993C65.1959 45.4473 66.6144 40.1228 66.5353 34.7147C66.611 29.2561 65.1622 23.8846 62.3519 19.2044C60.4188 15.9848 57.8791 13.1711 54.8736 10.9195L47.737 21.3645ZM18.0631 8.37659C13.3205 10.8652 9.3544 14.6113 6.59953 19.2044C3.81959 23.8953 2.38849 29.2625 2.46391 34.7147C2.38668 40.1715 3.81782 45.5436 6.59953 50.2387C8.26157 53.0208 10.3834 55.5009 12.8747 57.5734L20.189 46.855C19.5829 46.0883 19.0389 45.2746 18.5621 44.4215C16.943 41.4461 16.1234 38.1016 16.1832 34.7147C16.1249 31.3302 16.9445 27.9883 18.5621 25.0148C20.0943 22.2327 22.3683 19.9302 25.1312 18.3636C27.9885 16.7581 31.219 15.9351 34.4962 15.9779C36.5846 15.9625 38.6619 16.2833 40.6484 16.9281L47.5388 6.8112C43.3827 5.19476 38.9553 4.38958 34.4962 4.4392C28.7848 4.35566 23.1439 5.70714 18.0904 8.36975" fill="url(#paint0_linear_9974_24067)"/>
</svg>
