<svg width="51" height="51" viewBox="0 0 51 51" fill="none" xmlns="http://www.w3.org/2000/svg">
<g filter="url(#filter0_ii_9590_83630)">
<rect width="51" height="51" rx="25.5" fill="url(#paint0_linear_9590_83630)"/>
<path d="M12.75 12.75V22.0227H15.0682V24.3409H17.3864V22.0227H22.0227V12.75H12.75ZM22.0227 22.0227V24.3409H24.3409V26.6591H19.7045V28.9773H12.75V38.25H22.0227V28.9773H28.9773V26.6591H26.6591V24.3409H31.2955V22.0227H33.6136V24.3409H35.9318V22.0227H38.25V12.75H28.9773V22.0227H22.0227ZM35.9318 24.3409V26.6591H38.25V24.3409H35.9318ZM35.9318 26.6591H33.6136V28.9773H35.9318V26.6591ZM35.9318 28.9773V31.2955H38.25V28.9773H35.9318ZM35.9318 31.2955H33.6136V28.9773H31.2955V31.2955H25.5V38.25H27.8182V33.6136H32.4545V35.9318H34.7727V33.6136H35.9318V31.2955ZM32.4545 35.9318H30.1364V38.25H32.4545V35.9318ZM33.6136 26.6591V24.3409H31.2955V26.6591H33.6136ZM19.7045 26.6591V24.3409H17.3864V26.6591H19.7045ZM15.0682 24.3409H12.75V26.6591H15.0682V24.3409ZM24.3409 12.75V17.3864H23.1818V19.7045H24.3409V20.8636H26.6591V17.3864H27.8182V15.0682H26.6591V12.75H24.3409ZM15.0682 15.0682H19.7045V19.7045H15.0682V15.0682ZM31.2955 15.0682H35.9318V19.7045H31.2955V15.0682ZM16.2273 16.2273V18.5455H18.5455V16.2273H16.2273ZM32.4545 16.2273V18.5455H34.7727V16.2273H32.4545ZM15.0682 31.2955H19.7045V35.9318H15.0682V31.2955ZM16.2273 32.4545V34.7727H18.5455V32.4545H16.2273ZM35.9318 35.9318V38.25H38.25V35.9318H35.9318Z" fill="white"/>
</g>
<defs>
<filter id="filter0_ii_9590_83630" x="0" y="0" width="51" height="51" filterUnits="userSpaceOnUse" color-interpolation-filters="sRGB">
<feFlood flood-opacity="0" result="BackgroundImageFix"/>
<feBlend mode="normal" in="SourceGraphic" in2="BackgroundImageFix" result="shape"/>
<feColorMatrix in="SourceAlpha" type="matrix" values="0 0 0 0 0 0 0 0 0 0 0 0 0 0 0 0 0 0 127 0" result="hardAlpha"/>
<feOffset/>
<feGaussianBlur stdDeviation="1"/>
<feComposite in2="hardAlpha" operator="arithmetic" k2="-1" k3="1"/>
<feColorMatrix type="matrix" values="0 0 0 0 0 0 0 0 0 0 0 0 0 0 0 0 0 0 0.15 0"/>
<feBlend mode="normal" in2="shape" result="effect1_innerShadow_9590_83630"/>
<feColorMatrix in="SourceAlpha" type="matrix" values="0 0 0 0 0 0 0 0 0 0 0 0 0 0 0 0 0 0 127 0" result="hardAlpha"/>
<feOffset/>
<feGaussianBlur stdDeviation="0.5"/>
<feComposite in2="hardAlpha" operator="arithmetic" k2="-1" k3="1"/>
<feColorMatrix type="matrix" values="0 0 0 0 0 0 0 0 0 0 0 0 0 0 0 0 0 0 0.05 0"/>
<feBlend mode="normal" in2="effect1_innerShadow_9590_83630" result="effect2_innerShadow_9590_83630"/>
</filter>
<linearGradient id="paint0_linear_9590_83630" x1="0" y1="0" x2="39.4697" y2="58.7468" gradientUnits="userSpaceOnUse">
<stop stop-color="#197DD9"/>
<stop offset="0.513888" stop-color="#C953A8"/>
<stop offset="1" stop-color="#EC8A61"/>
</linearGradient>
</defs>
</svg>
