<svg width="23" height="22" viewBox="0 0 23 22" fill="none" xmlns="http://www.w3.org/2000/svg">
<path fill-rule="evenodd" clip-rule="evenodd" d="M11.3832 1.40431C5.99757 1.40431 1.63169 5.70044 1.63169 11C1.63169 16.2996 5.99757 20.5957 11.3832 20.5957C16.7688 20.5957 21.1346 16.2996 21.1346 11C21.1346 5.70044 16.7688 1.40431 11.3832 1.40431ZM0.712708 11C0.712708 5.20101 5.49003 0.5 11.3832 0.5C17.2763 0.5 22.0536 5.20101 22.0536 11C22.0536 16.799 17.2763 21.5 11.3832 21.5C5.49003 21.5 0.712708 16.799 0.712708 11ZM14.7713 7.86685C14.9507 8.04342 14.9507 8.32971 14.7713 8.50629L12.0329 11.2009L14.7713 13.8956C14.9507 14.0721 14.9507 14.3584 14.7713 14.535C14.5918 14.7116 14.3009 14.7116 14.1215 14.535L11.3831 11.8404L8.64471 14.535C8.46527 14.7116 8.17433 14.7116 7.99489 14.535C7.81545 14.3584 7.81545 14.0721 7.99489 13.8956L10.7333 11.2009L7.99489 8.50629C7.81545 8.32971 7.81545 8.04342 7.99489 7.86685C8.17433 7.69027 8.46527 7.69027 8.64471 7.86685L11.3831 10.5615L14.1215 7.86685C14.3009 7.69027 14.5918 7.69027 14.7713 7.86685Z" fill="black"/>
</svg>
