<svg width="69" height="69" viewBox="0 0 69 69" fill="none" xmlns="http://www.w3.org/2000/svg">
<defs>
<linearGradient id="paint0_linear_9974_81744" x1="12.1514" y1="12.4058" x2="56.7722" y2="57.033" gradientUnits="userSpaceOnUse">
<stop stop-color="#197DD9"/>
<stop offset="0.5" stop-color="#C953A8"/>
<stop offset="1" stop-color="#EC8A61"/>
</linearGradient>
</defs>
<path d="M33.1756 26.9973C32.8196 26.4524 32.3302 26.0076 31.7538 25.7053C31.2172 25.4179 30.6113 25.2854 30.0038 25.3225C29.387 25.3592 28.7927 25.5676 28.288 25.9241C27.7733 26.2635 27.3599 26.7359 27.0918 27.2912C26.9345 27.6296 26.8373 27.9927 26.8047 28.3644H28.2812C28.3163 28.2596 28.3574 28.1569 28.4043 28.0568C28.578 27.7123 28.8398 27.4199 29.163 27.2092C29.48 26.9905 29.8465 26.8542 30.2294 26.8127C30.5865 26.7847 30.9447 26.8507 31.2684 27.0041C31.6027 27.1724 31.8876 27.4244 32.0956 27.7356C32.2317 27.9286 32.3334 28.1436 32.3963 28.3713H33.7635C33.6469 27.8807 33.4381 27.4167 33.1483 27.0041" fill="black"/>
<path d="M35.2266 28.3642H36.5937C36.6587 28.1361 36.7628 27.921 36.9013 27.7285C37.1105 27.4134 37.4011 27.1607 37.7421 26.9971C38.0679 26.8424 38.4286 26.7764 38.788 26.8057C39.169 26.846 39.5336 26.9824 39.8475 27.2022C40.1708 27.4128 40.4326 27.7053 40.6063 28.0498C40.6666 28.1485 40.7148 28.254 40.7498 28.3642H42.2264C42.1922 27.9972 42.095 27.6388 41.9393 27.3047C41.673 26.7503 41.2621 26.2779 40.7498 25.9375C40.2427 25.5808 39.6462 25.3725 39.0272 25.336C38.4198 25.2995 37.8141 25.432 37.2773 25.7188C36.695 26.0144 36.1984 26.4546 35.8349 26.9971C35.5456 27.4091 35.339 27.8734 35.2266 28.3642Z" fill="black"/>
<path d="M38.0154 31.6865H36.6483C36.5605 31.9779 36.4156 32.2489 36.222 32.4836C36.0283 32.7184 35.7898 32.9122 35.5204 33.0537C35.196 33.2125 34.8341 33.2788 34.4745 33.2451C34.093 33.2066 33.728 33.07 33.415 32.8486C33.0917 32.6379 32.8299 32.3455 32.6562 32.001C32.6013 31.9046 32.5599 31.801 32.5332 31.6934H31.0156C31.0499 32.0582 31.1471 32.4143 31.3027 32.7461C31.5664 33.3043 31.9807 33.7778 32.499 34.1132C32.998 34.4705 33.5871 34.6811 34.1996 34.7209C34.8121 34.7608 35.4235 34.6284 35.9647 34.3388C36.4763 34.0639 36.9236 33.6834 37.2772 33.2227C37.6307 32.7619 37.8823 32.2313 38.0154 31.666" fill="black"/>
<path d="M47.737 21.3645C48.7903 22.4585 49.6957 23.6857 50.4303 25.0148C52.0553 27.986 52.8798 31.3287 52.8228 34.7147C52.8816 38.1031 52.0571 41.4485 50.4303 44.4215C48.9032 47.2051 46.6308 49.5082 43.868 51.0727C41.0083 52.6776 37.7752 53.4982 34.4962 53.4515C31.8736 53.4778 29.2739 52.9611 26.8607 51.934L19.9771 62.0167C24.546 64.0431 29.4984 65.0596 34.4962 64.9971C40.2076 65.0886 45.85 63.7391 50.902 61.0733C55.6856 58.5493 59.6777 54.7512 62.4368 50.0993C65.1959 45.4473 66.6144 40.1228 66.5353 34.7147C66.611 29.2561 65.1622 23.8846 62.3519 19.2044C60.4188 15.9848 57.8791 13.1711 54.8736 10.9195L47.737 21.3645ZM18.0631 8.37659C13.3205 10.8652 9.3544 14.6113 6.59953 19.2044C3.81959 23.8953 2.38849 29.2625 2.46391 34.7147C2.38668 40.1715 3.81782 45.5436 6.59953 50.2387C8.26157 53.0208 10.3834 55.5009 12.8747 57.5734L20.189 46.855C19.5829 46.0883 19.0389 45.2746 18.5621 44.4215C16.943 41.4461 16.1234 38.1016 16.1832 34.7147C16.1249 31.3302 16.9445 27.9883 18.5621 25.0148C20.0943 22.2327 22.3683 19.9302 25.1312 18.3636C27.9885 16.7581 31.219 15.9351 34.4962 15.9779C36.5846 15.9625 38.6619 16.2833 40.6484 16.9281L47.5388 6.8112C43.3827 5.19476 38.9553 4.38958 34.4962 4.4392C28.7848 4.35566 23.1439 5.70714 18.0904 8.36975" fill="url(#paint0_linear_9974_81744)"/>
</svg>
