<svg width="18" height="18" viewBox="0 0 18 18" fill="none" xmlns="http://www.w3.org/2000/svg">
<path fill-rule="evenodd" clip-rule="evenodd" d="M14.4321 1.52526C14.2424 1.60382 14.0701 1.71898 13.9249 1.86415L2.59414 13.1949L1.76503 16.235L4.8051 15.4059L16.1358 4.07512C16.281 3.92994 16.3962 3.75759 16.4747 3.56792C16.5533 3.37824 16.5938 3.17494 16.5938 2.96964C16.5938 2.76433 16.5533 2.56103 16.4747 2.37135C16.3962 2.18168 16.281 2.00933 16.1358 1.86415C15.9907 1.71898 15.8183 1.60382 15.6286 1.52526C15.439 1.44669 15.2357 1.40625 15.0304 1.40625C14.8251 1.40625 14.6218 1.44669 14.4321 1.52526ZM5.24328 16.1609L16.7325 4.67174C16.956 4.44821 17.1333 4.18285 17.2543 3.89081C17.3752 3.59876 17.4375 3.28574 17.4375 2.96964C17.4375 2.65353 17.3752 2.34051 17.2543 2.04846C17.1333 1.75642 16.956 1.49106 16.7325 1.26753C16.5089 1.04401 16.2436 0.866702 15.9515 0.745732C15.6595 0.624762 15.3465 0.5625 15.0304 0.5625C14.7143 0.5625 14.4012 0.624762 14.1092 0.745732C13.8172 0.866702 13.5518 1.04401 13.3283 1.26753L1.83908 12.7567L0.5625 17.4375L5.24328 16.1609Z" fill="black"/>
</svg>
