<svg width="31" height="30" viewBox="0 0 31 30" fill="none" xmlns="http://www.w3.org/2000/svg">
<path d="M25.0357 20.9269H5.8363C5.70623 20.9325 5.57804 20.8946 5.4719 20.8192C5.36575 20.7439 5.28769 20.6353 5.25005 20.5107C5.21232 20.3897 5.21479 20.2598 5.25707 20.1404C5.29934 20.021 5.37915 19.9185 5.48456 19.8482C5.48456 19.8482 8.41578 17.7378 8.41578 10.738C8.41578 9.82036 8.59652 8.91163 8.94771 8.06381C9.29889 7.21598 9.81365 6.44567 10.4625 5.79677C11.1114 5.14787 11.8818 4.63311 12.7296 4.28193C13.5774 3.93075 14.4861 3.75 15.4038 3.75C16.3215 3.75 17.2302 3.93075 18.078 4.28193C18.9258 4.63311 19.6962 5.14787 20.3451 5.79677C20.994 6.44567 21.5087 7.21598 21.8599 8.06381C22.211 8.91163 22.3918 9.82036 22.3918 10.738C22.3918 17.7378 25.323 19.8306 25.323 19.8541C25.4262 19.9248 25.5041 20.0267 25.5452 20.1448C25.5863 20.263 25.5886 20.3911 25.5516 20.5107C25.5177 20.624 25.4503 20.7244 25.3582 20.7987C25.2661 20.873 25.1537 20.9177 25.0357 20.9269ZM7.21982 19.7545H23.6346C22.6204 18.4237 21.2369 15.7035 21.2369 10.738C21.2369 9.19567 20.6242 7.71645 19.5336 6.62582C18.4429 5.5352 16.9637 4.92249 15.4214 4.92249C13.879 4.92249 12.3998 5.5352 11.3092 6.62582C10.2186 7.71645 9.60587 9.19567 9.60587 10.738C9.62346 15.7035 8.23988 18.4237 7.21982 19.7545Z" fill="black"/>
<path d="M15.433 26.2501C14.9573 26.2517 14.4897 26.1273 14.0778 25.8894C13.6658 25.6516 13.3243 25.3086 13.088 24.8958C13.0111 24.7619 12.9901 24.6031 13.0297 24.4538C13.0692 24.3045 13.166 24.1768 13.2991 24.0985C13.3656 24.0595 13.4393 24.034 13.5157 24.0235C13.5921 24.013 13.6699 24.0177 13.7445 24.0373C13.8191 24.0569 13.8891 24.0911 13.9505 24.1378C14.0119 24.1845 14.0634 24.2429 14.1022 24.3096C14.2374 24.5446 14.4321 24.7398 14.6668 24.8756C14.9015 25.0114 15.1678 25.0829 15.4389 25.0829C15.71 25.0829 15.9763 25.0114 16.211 24.8756C16.4456 24.7398 16.6404 24.5446 16.7755 24.3096C16.8567 24.182 16.9839 24.0907 17.1308 24.0547C17.2776 24.0187 17.4327 24.0409 17.5637 24.1165C17.6946 24.1922 17.7912 24.3155 17.8333 24.4608C17.8754 24.606 17.8598 24.7618 17.7897 24.8958C17.5502 25.3084 17.2063 25.6507 16.7926 25.8884C16.379 26.1261 15.9101 26.2508 15.433 26.2501Z" fill="black"/>
</svg>
